<svg xmlns="http://www.w3.org/2000/svg" version="1.1" xmlns:xlink="http://www.w3.org/1999/xlink" xmlns:svgjs="http://svgjs.dev/svgjs" width="1440" height="560" preserveAspectRatio="none" viewBox="0 0 1440 560"><g mask="url(&quot;#SvgjsMask1318&quot;)" fill="none"><rect width="1440" height="560" x="0" y="0" fill="url(&quot;#SvgjsLinearGradient1319&quot;)"></rect><path d="M1440 0L1070.72 0L1440 135.91z" fill="rgba(255, 255, 255, .1)"></path><path d="M1070.72 0L1440 135.91L1440 287.39L1028.77 0z" fill="rgba(255, 255, 255, .075)"></path><path d="M1028.77 0L1440 287.39L1440 327.62L976.14 0z" fill="rgba(255, 255, 255, .05)"></path><path d="M976.1400000000001 0L1440 327.62L1440 357.79L693.73 0z" fill="rgba(255, 255, 255, .025)"></path><path d="M0 560L629.41 560L0 468.15999999999997z" fill="rgba(0, 0, 0, .1)"></path><path d="M0 468.15999999999997L629.41 560L666.5999999999999 560L0 246.84999999999997z" fill="rgba(0, 0, 0, .075)"></path><path d="M0 246.85000000000002L666.5999999999999 560L706.05 560L0 109.75000000000003z" fill="rgba(0, 0, 0, .05)"></path><path d="M0 109.75L706.05 560L1139.3 560L0 103.77z" fill="rgba(0, 0, 0, .025)"></path></g><defs><mask id="SvgjsMask1318"><rect width="1440" height="560" fill="#ffffff"></rect></mask><linearGradient x1="15.28%" y1="139.29%" x2="84.72%" y2="-39.29%" gradientUnits="userSpaceOnUse" id="SvgjsLinearGradient1319"><stop stop-color="rgba(229, 229, 229, 1)" offset="0"></stop><stop stop-color="rgba(255, 255, 255, 1)" offset="1"></stop></linearGradient></defs></svg>